<svg xmlns="http://www.w3.org/2000/svg" width="678.5" height="218.5"><path fill-rule="evenodd" clip-rule="evenodd" fill="#0054A6" d="M3.815 103.092L228.563 103.092 115.332 215.421z"/><path fill="#FFCE34" d="M105.609 101.41l-16.999-.039s-.519-1.943 1.166-2.98 3.995-2.14 2.828-5.379c0 0 1.744-.627 4.207 3.002 0 0-.443-2.514.295-5.397.684-2.663 2.145-3.549 2.145-3.549s1.035 2.144 2.958 3.843c2.333 2.066 3.248 2.425 3.637 6.055.39 3.627-.237 4.444-.237 4.444zm20.539-9.147s2.781-.628 3.674-3.982c0 0 4.185 4.056 2.889 9.885 0 0 2.319-.731 2.944-2.108 1.296-2.853 2.617-4.719 4.031-4.527 0 0-.633 2.826 1.655 6.282 1.906 2.879 3.554 3.653 3.554 3.653l-36.845.034s.907-3.886-.129-6.739c-1.038-2.852-2.237-4.589-2.237-4.589-.13-1.038.292-3.316 1.329-4.482 1.037-1.167 2.385-3.735 2.434-5.747 0 0 2.933 2.408 4.954 9.634 0 0 .661-3.515 2.722-5.572 1.087-1.085 2.374-1.553 2.374-1.553s1.25 4.677 6.651 9.811zm5.101 19.994h-11.923l-2.333 1.555 2.721 4.406s.778-.908 1.815-.908c1.036 0 9.72.129 9.72.129v-5.182zm-30.326.13v5.184l9.46-.132 23.587 35.512s.648.909-.389 1.037c-1.037.131-35.77 0-35.77 0s-1.296-.39-.389-1.815 17.108-24.622 17.108-24.622l-3.5-4.019-20.345 29.938s-2.203 4.796 4.406 5.958l41.73-.129s6.09-1.164 2.851-6.348l-25.012-38.362s-1.167-2.332-3.11-2.332c-1.945 0-10.627.13-10.627.13z"/><circle fill="#FFCE34" cx="105.069" cy="137.27" r="5.573"/><circle fill="#FFCE34" cx="126.324" cy="137.27" r="5.573"/><path fill="#FFCE34" d="M111.485 156.84a4.796 4.796 0 1 1 9.592-.004 4.796 4.796 0 0 1-9.592.004zm12.376 0a4.795 4.795 0 1 1 9.59-.005 4.795 4.795 0 0 1-9.59.005zm-24.753 0a4.794 4.794 0 1 1 9.589 0 4.795 4.795 0 0 1-9.589 0zm5.97 27.95l7.266.273c.152 1.143.234 1.303.702 1.898.761.969 1.851 1.453 3.266 1.453 1.055 0 1.869-.245 2.44-.742.572-.497.857-1.069.857-1.723 0-.621-.272-1.178-.816-1.667-.543-.489-1.806-.952-3.787-1.388-3.244-.729-5.557-1.697-6.938-2.905-1.394-1.208-2.091-2.748-2.091-4.621 0-1.228.356-2.392 1.07-3.485.713-1.093 1.785-1.952 3.216-2.577 1.432-.628 3.393-.941 5.886-.941 3.059 0 5.389.568 6.995 1.709 1.606 1.135 2.561 2.946 2.865 5.426l-7.186.101c-.186-1.077-.36-1.554-.953-2.041-.593-.491-1.412-.736-2.457-.736-.86 0-1.507.182-1.943.546-.435.366-.653.81-.653 1.333 0 .382.18.725.54 1.027.348.316 1.176.607 2.481.881 3.233.699 5.548 1.4 6.946 2.113 1.398.715 2.417 1.6 3.052 2.655.637 1.055.956 2.235.956 3.544a7.606 7.606 0 0 1-1.273 4.245c-.849 1.293-2.036 2.275-3.561 2.946-1.523.669-3.443 1-5.762 1-4.071 0-6.89-.78-8.458-2.349-1.565-1.568-2.453-3.557-2.66-5.975zm22.58-149.482s2.627-4.609 5.857-7.438c7.438-6.509 13.573-6.323 21.56.377l61.183 59.867c2.975 3.067 8.554 9.205 11.249 9.856 0 0-5.314 1.171-10.691-1.119-4.329-1.84-9.576-7.528-9.576-7.528l-47.157-47.489s-1.134-1.407-2.394-.276c-1.227 1.1.184 2.396.184 2.396L209.23 94.82s3.119 2.635 6.486 3.428c0 0-5.7 1.379-13.481-2.696 0 0-3.208-2.281-5.67-4.742-2.462-2.461-40.268-40.603-40.268-40.603s-1.148-.953-2.16.118c-1.057 1.118.346 2.652.346 2.652l41.449 40.999s2.103 2.226 5.449 3.343c0 0-7.73.518-12.525-2.982s-37.601-36.81-37.601-36.81-1.413-.904-2.19.133c-.778 1.035-.126 2.074-.126 2.074l32.013 31.043s2.733 2.637 6.544 4.589c0 0-6.288.558-12.703-3.532-4.941-3.152-28.115-26.636-28.115-26.636s-1.446-1.894-2.805-.414c-1.193 1.296.845 2.747.845 2.747s22.063 23.464 25.781 23.373c0 0-5.096.93-19.878-8.833-11.506-7.6-15.805-15.991-15.805-15.991s2.326-11.341-7.158-30.772z"/><path fill-rule="evenodd" clip-rule="evenodd" fill="#FFCE34" d="M163.01 136.691c-3.936 0-4.652-3.109-4.652-6.422 0-4.556 1.636-6.889 4.362-6.889 2.424 0 3.964 1.42 4.196 3.873h7.344c-.626-6.07-4.659-9.643-11.875-9.643-6.587 0-11.766 4.758-11.766 12.396 0 7.674 4.72 12.458 12.528 12.458 6.222 0 10.586-3.669 11.271-9.768h-7.441c-.293 2.263-1.47 3.995-3.967 3.995zm-97.045-18.39l-8.462 23.613h7.575l.887-3.114h7.708l.916 3.114h7.704l-8.461-23.613h-7.867zm1.472 15.581l2.394-8.457 2.494 8.457h-4.888zm69.19-61.187s.671 1.935-2.453 3.271c-2.606 1.117-3.239 5.533-5.703 6.503 0 0-3.185-3.909-3.055-8.573.036-1.295.648-5.443.648-5.443s-2.852 0-6.221 1.815c-1.3.701-3.24 2.722-3.24 2.722s.972-1.813.524-3.812c-1.261-5.616-4.125-6.532-4.125-6.532s.103 1.661-1.971 4.122c-2.074 2.463-2.557 1.896-5.02 4.358-2.462 2.462-4.311 8.213-4.311 8.213s-1.078-1.791-1.876-2.943c-1.83-2.634-3.698-2.887-3.698-2.887s1.65 2.724-2.346 5.87c-3.475 2.734-.894 7.995-.894 7.995s-2.515-.773-5.612-.233c0 0-.37-.294-.514-1.692-.095-.932.813-2.092.813-2.092s-.584-.543-2.531.717c-1.48.958-2.063 2.061-4.079 6.93-1.109 2.677-1.97 5.572-4.277 5.572 0 0-1.427-.323-2.203-2.264-.917-2.291-.258-3.827-.258-3.827s-4.796 2.461-4.796 6.22c0 3.757 2.722 4.666 2.722 4.666l13.121-.109c0-2.593 2.141-4.679 3.597-5.204.327-.119 1.066-1.005 1.167-2.205.227-2.724-1.555-4.016-1.555-4.016 3.666-1.179 6.35.908 6.35.908-.129-1.555.561-3.037 1.563-4.682 1.444-2.372 4.332-2.166 4.332-2.166-.619 2.27 2.927 4.957 2.927 4.957 0-2.462 1.484-4.96 2.921-6.719 1.591-1.949.31-6.554.31-6.554 4.796 1.945 7.579 8.452 7.579 8.452 2.433-4.285 6.574-4.432 6.574-4.432s.243 2.337 1.558 4.821c1.388 2.622 3.6 5.155 3.6 5.155 2.096-.92 2.486-4.767 2.486-4.767s1.643-.273 4.017 3.007c1.407 1.944 2.216 5.612 2.216 5.612s1.85-4.333 5.017-4.112c1.423.099 2.463.259 2.463.259s-.777 1.021-.777 3.109c0 4.538 6.221 8.943 6.221 8.943l13.864.088s2.177-1.146 2.177-4.239c0-5.351-3.859-6.735-3.859-6.735.388 4.276-2.592 4.535-2.592 4.535s-.005-1.461-.653-2.498c-.647-1.038-1.947-1.784-3.364-2.945-2.136-1.754-1.037-4.276-1.037-4.276-3.849-.685-3.499 5.573-3.499 5.573s-2.892-2.426-3.594-5.586c-.62-2.784 1.856-3.095 1.856-3.095s-1.072-2.242-3.673-2.038c-2.459.192-4.697 3.201-4.697 3.201 1.768-6.111-2.14-10.918-2.14-10.918z"/><path fill-rule="evenodd" clip-rule="evenodd" fill="#FFCE34" d="M124.516 10.794s-.609 1.586-2.455.429c-1.021-.64-1.266-2.013-1.266-2.013s1.323-.263 2.586-.042c.86.15 1.343.994 1.135 1.626l4.469.053s-1.106-4.73-6.679-5.12c-5.572-.389-8.553-.13-8.553-.13s-2.073.259-3.111-1.426c-1.037-1.684-.648-2.333-.648-2.333s-3.24 2.074-3.24 5.961c0 2.591 1.814 4.536 1.814 4.536s-5.054 8.553-5.961 15.292c0 0 6.869 7.128 7.128 15.812h-1.814c-.648-2.463.221-8.364-8.295-15.293-9.029-7.348-18.604-3.08-23.866 1.598l-61.867 62.88s-4.886 5.729-8.105 6.025c0 0 5.768 1.09 11.146-1.197 4.33-1.84 9.395-7.277 9.395-7.277L72.66 43.107s1.13-1.243 2.256-.076c1.065 1.104-.045 2.195-.045 2.195L23.897 95.447s-2.229 2.526-5.597 3.32c0 0 8.935.259 13.027-2.665 0 0 3.112-2.12 5.574-4.583 2.461-2.461 40.175-40.305 40.175-40.305s1.361-.63 2.009.407c.648 1.037-.07 1.986-.07 1.986l-41.082 40.53s-5.439 3.734-6.217 3.734c0 0 8.294.779 13.089-2.723 4.795-3.5 38.199-37.056 38.199-37.056s1.001-.801 2.002.408c.827.998-.188 1.923-.188 1.923L52.453 92.168s-5.055 4.018-6.481 4.018c0 0 8.555-.648 13.479-3.76 4.955-3.128 30.197-28.769 30.197-28.769s.878-.89 1.878-.016c1.154 1.01.208 2.126.208 2.126S69.43 89.836 63.54 91.462c0 0 5.631.576 19.878-8.833 8.708-5.75 13.228-12.103 13.228-12.103s1.944.259 4.277 3.758c0 0 1.684-4.146 4.924-6.61 3.24-2.462 2.721-1.944 4.018-3.368 1.296-1.426 1.304-4.984 1.304-4.984s3.64.214 5.844 3.324c2.203 3.109 2.062 5.5 2.062 5.5s2.84-2.327 6.083-2.545c1.943-.129 3.314-.091 3.314-.091s-.465 3.203-.593 5.924c-.259 5.573 1.037 7.126 1.037 7.126s4.924-7.126 4.017-17.235c-.907-10.11-3.24-16.978-7.387-24.882-4.146-7.906-3.888-8.036-3.888-11.405 0-3.759.388-7.647 8.035-7.777 7.646-.129 8.295 2.593 8.295 2.593l-.002-.007c.82-11.453-9-9-9-9l-4.47-.053z"/><path fill="#0054A6" d="M321.816 102.753l-7.443-21h-38.146l-7.441 21h-12.494l32.696-89.714h13.556l32.961 89.714h-13.689zm-22.592-63.797c-1.595-4.385-2.791-8.372-3.854-12.227h-.266a201.867 201.867 0 0 1-3.723 12.094L279.42 72.052h31.765l-11.961-33.096zm82.674 64.861c-28.843 0-40.805-18.343-40.805-43.729 0-27.378 13.56-47.847 43.863-47.847 6.911 0 14.218.93 20.6 2.791l-1.993 11.165c-6.246-2.126-13.157-3.455-19.935-3.455-20.471 0-29.244 15.683-29.244 35.353 0 22.064 9.573 34.823 30.437 34.823 6.513 0 14.354-1.861 19.672-4.52l1.994 10.633c-6.778 2.792-15.551 4.786-24.589 4.786zm57.816.132c-7.311 0-14.089-.932-19.672-2.525l1.463-11.696a51.81 51.81 0 0 0 18.872 3.589c10.368 0 19.404-4.254 19.404-15.284 0-20.204-40.537-12.229-40.537-40.804 0-14.754 11.167-25.386 31.368-25.386 5.187 0 11.165.532 16.212 1.728l-1.461 10.766c-4.783-1.462-10.231-2.392-15.414-2.392-12.229 0-18.077 5.449-18.077 13.955 0 19.404 41.071 12.361 41.071 40.537 0 16.081-13.162 27.512-33.229 27.512zm-165.298 72.247c-11.748 0-17.566-7.275-17.566-19.254 0-11.692 5.469-20.823 18.906-20.823 3.079 0 6.454.466 9.36 1.339l-.695 3.43a29.002 29.002 0 0 0-9.481-1.628c-10.062 0-14.076 7.853-14.076 17.043 0 10.525 4.653 16.634 14.657 16.634 3.199 0 6.862-.929 9.423-2.21l.755 3.198c-3.081 1.339-7.038 2.271-11.283 2.271zm36.12-.409v-18.729c0-4.827-1.34-7.68-5.874-7.68-5.469 0-9.307 5.293-9.307 12.621v13.787h-3.665v-42.462h3.665v14.603c0 1.975-.115 4.304-.466 5.759l.115.055c1.686-4.479 5.412-7.329 10.469-7.329 6.69 0 8.726 4.133 8.726 9.249v20.126h-3.663zm33.094-15.65h-19.603c-.348 9.191 3.199 12.972 9.944 12.972 2.795 0 5.701-.578 8.146-1.686l.697 3.084c-2.733 1.104-6.048 1.743-9.654 1.743-8.433 0-13.029-4.651-13.029-14.831 0-8.61 4.654-15.007 12.506-15.007s11.109 5.411 11.109 11.632c0 .407 0 1.108-.116 2.093zm-11.229-10.931c-4.302 0-7.386 3.079-8.14 8.146h15.585c.119-4.889-2.733-8.146-7.445-8.146zm54.384 26.581v-18.729c0-4.654-1.107-7.68-5.584-7.68-4.769 0-9.191 4.77-9.191 12.737v13.671h-3.664v-18.79c0-4.127-.813-7.618-5.582-7.618-5.061 0-9.135 5.234-9.135 12.737v13.671h-3.663V146.88h3.722c0 2.032-.173 4.881-.523 6.744l.12.062c1.628-4.424 5.465-7.274 10.35-7.274 6.866 0 8.087 5.061 8.087 7.154.989-2.732 4.13-7.154 10.178-7.154 5.41 0 8.552 2.794 8.552 9.306v20.069h-3.667zm14.365-35.657a2.606 2.606 0 0 1-2.618-2.618c0-1.45 1.163-2.615 2.618-2.615s2.617 1.106 2.617 2.615c.001 1.397-1.162 2.618-2.617 2.618zm-1.861 35.657v-28.906h3.662v28.906h-3.662zm16.811.463c-2.213 0-4.653-.232-6.457-.754l.523-3.488c1.862.692 4.363 1.101 6.572 1.101 4.304 0 7.445-2.032 7.445-5.288 0-7.506-14.657-2.737-14.657-13.148 0-4.77 3.779-8.26 10.936-8.26 1.859 0 4.072.233 5.815.639l-.465 3.142c-1.802-.525-3.84-.871-5.876-.871-4.479 0-6.688 1.918-6.688 4.942 0 7.507 14.716 2.91 14.716 13.033 0 4.94-4.419 8.952-11.864 8.952zm26.755-.054c-5.644 0-7.271-2.564-7.271-8.376v-18.033h-6.573v-2.906h6.573v-9.771l3.664-.99v10.762h8.898v2.906h-8.898v16.228c0 5.523.989 6.922 4.596 6.922 1.51 0 2.906-.174 4.012-.467l.523 3.142c-1.57.348-3.722.583-5.524.583zm24.194-26.175c-6.574-1.047-9.716 4.188-9.716 14.249v11.517h-3.663v-28.906h3.725c0 2.032-.23 5-.755 7.56l.116.058c1.102-4.306 4.126-8.841 10.469-8.025l-.176 3.547zm13.834 28.731c-3.371 8.84-6.628 12.097-13.025 12.097-.932 0-2.093-.173-2.91-.351l.409-3.372c.869.294 2.267.466 3.313.466 3.431 0 5.932-1.742 8.433-8.258l1.395-3.547-11.162-28.906h4.303l6.513 17.798c.99 2.672 1.569 4.592 2.21 6.687h.061c.462-1.744 1.687-5.293 2.906-8.78l5.584-15.704h4.012l-12.042 31.87zm42.925-42.052c-1.512-.466-3.201-.639-4.711-.639-4.772 0-6.806 2.791-6.806 8.725v2.095h8.899v2.906h-8.899v26h-3.663v-26h-6.633v-2.906h6.633v-1.979c0-8.086 4.071-11.867 10.761-11.867 1.686 0 3.196.174 4.766.525l-.347 3.14zm9.595 39.55c-7.679 0-12.562-4.712-12.562-14.831 0-8.087 4.884-15.007 13.552-15.007 6.743 0 12.618 3.726 12.618 14.484 0 8.432-5.116 15.354-13.608 15.354zm.582-26.871c-4.77 0-9.308 3.664-9.308 11.751 0 7.675 3.372 12.095 9.365 12.095 4.769 0 9.188-3.664 9.188-12.156 0-7.267-3.139-11.69-9.245-11.69zm47.576 26.408v-39.26h3.726V172.7h15.003v3.087h-18.729zm24.256-35.657a2.605 2.605 0 0 1-2.618-2.618 2.606 2.606 0 0 1 2.618-2.615c1.454 0 2.617 1.106 2.617 2.615.001 1.397-1.163 2.618-2.617 2.618zm-1.863 35.657v-28.906h3.664v28.906h-3.664zm29.08-39.087c-1.513-.466-3.199-.639-4.709-.639-4.773 0-6.805 2.791-6.805 8.725v2.095h8.896v2.906h-8.896v26h-3.664v-26h-6.636v-2.906h6.636v-1.979c0-8.086 4.069-11.867 10.758-11.867 1.686 0 3.198.174 4.771.525l-.351 3.14zm20.589 23.437h-19.601c-.347 9.191 3.199 12.972 9.946 12.972 2.794 0 5.701-.578 8.145-1.686l.697 3.084c-2.737 1.104-6.048 1.743-9.657 1.743-8.431 0-13.026-4.651-13.026-14.831 0-8.61 4.649-15.007 12.502-15.007s11.108 5.411 11.108 11.632c0 .407 0 1.108-.114 2.093zm-11.225-10.931c-4.304 0-7.387 3.079-8.145 8.146h15.589c.116-4.889-2.734-8.146-7.444-8.146z"/><g><path fill="#0054A6" d="M666.561 146.789c-4.76 0-8.398-3.719-8.398-8.398 0-4.639 3.759-8.438 8.398-8.438 4.759 0 8.438 3.68 8.438 8.438 0 4.559-3.879 8.398-8.438 8.398zm0-15.037c-3.6 0-6.519 2.92-6.519 6.559 0 3.6 2.919 6.68 6.519 6.68 3.64 0 6.519-2.92 6.519-6.56-.001-3.599-2.88-6.679-6.519-6.679zm1.559 11.198l-2.56-4.079h-.12v4.079h-1.6v-9.278h2.8c2.199 0 3.079.959 3.079 2.359 0 1.56-.96 2.52-2.439 2.68.2.24.56.76.92 1.279l1.92 2.96h-2zm-1.64-7.999h-1.04v2.84h.64c1.48 0 1.96-.8 1.96-1.561 0-.878-.399-1.279-1.56-1.279z"/></g><path fill="#0054A6" d="M566.624 149.666c-6.623-1.05-9.786 4.225-9.786 14.363v11.607h-3.695v-29.129h3.756c0 2.046.19 5.032-.336 7.613l-.308.063c1.109-4.339 4.157-8.914 10.55-8.091l-.181 3.574z"/></svg>